<?xml version="1.0" encoding="utf-8"?>
<!-- Generator: Adobe Illustrator 16.0.0, SVG Export Plug-In . SVG Version: 6.00 Build 0)  -->
<!DOCTYPE svg PUBLIC "-//W3C//DTD SVG 1.1//EN" "http://www.w3.org/Graphics/SVG/1.1/DTD/svg11.dtd">
<svg version="1.1" id="Layer_1" xmlns="http://www.w3.org/2000/svg" xmlns:xlink="http://www.w3.org/1999/xlink" x="0px" y="0px"
	 width="180.839px" height="100.344px" viewBox="0 0 180.839 100.344" style="enable-background:new 0 0 180.839 100.344;"
	 xml:space="preserve">
<style type="text/css">
<![CDATA[
	.st0{fill-rule:evenodd;clip-rule:evenodd;}
]]>
</style>
<g>
	<path class="st0" d="M165.62,11.73c0,12.146-0.336,23.56-0.336,37.11c0,9.941-0.486,21.281,0,29.432
		c0.131,2.184-1.995,7.798,2.561,7.679l6.397,0.002V1.493c-49.281,0-104.499-0.432-156.117-1.28
		c-1.843,0.716-3.122,1.997-3.84,3.839v8.145L165.62,11.73z"/>
	<path class="st0" d="M4.048,14.289c51.618,0.848,106.662,1.28,156.118,1.28c0,28.152,0,58.961,0,83.177
		c-49.933,2.119-108.75,2.141-158.678,0c-2.959-24.34-0.446-54.152-1.279-80.618C0.926,16.286,2.206,15.005,4.048,14.289z
		 M30.92,24.526c-1.64,1.772-1.64,1.772-1.279,3.839c0.334,3.747-3.084,5.285-3.972,8.573c-3.035,1.569-3.047,3.551-6.266,5.503
		c-2.749,1.667-8.476,0.929-8.958,5.118c0,6.825,0,13.65,0,20.475c9.92,4.155,18.851,9.303,20.475,21.754
		c32.844,0,65.689,0,98.533,0c3.739-10.338,8.947-19.205,21.755-20.475c0-8.104,0-16.209,0-24.313
		c-7.543-1.004-12.776-3.895-16.636-8.958c-3.013-3.953-1.882-10.4-6.398-11.517C95.756,24.526,63.34,24.526,30.92,24.526z"/>
	<path class="st0" d="M76.988,28.365c24.679-3.042,38.865,19.547,31.991,39.67c-2.877,8.425-16.113,19.041-28.151,19.194
		C63.526,87.45,42.542,67.324,52.675,45.001C55.924,37.842,63.86,29.984,76.988,28.365z M78.268,39.882
		c-13.549,0.685-11.236,18.375,0,19.195c-0.779,3.06,1.606,9.284-1.28,10.237c-3.489-1.203-2.431-6.953-8.958-5.119
		c0.717,6.109,5.049,8.604,10.238,10.238c0.123,2.01-0.171,4.437,2.56,3.838c3.354-6.497,12.796-6.059,12.796-14.076
		c0-6.465-5.262-7.562-11.517-11.517c0-2.986,0-5.971,0-8.958c2.813,1.099,5.698,8.706,10.237,3.839
		c-2.195-3.776-3.816-8.127-10.237-7.678c0-1.28,0-2.559,0-3.839c-1.279,0-2.56,0-3.839,0
		C78.268,37.323,78.268,38.603,78.268,39.882z"/>
	<path class="st0" d="M76.988,43.721c2.862,0.551,0.52,6.306,1.28,8.958C72.125,53.279,74.584,45.239,76.988,43.721z"/>
	<path class="st0" d="M82.107,60.357c7.173-2.503,7.173,11.459,0,8.957C82.107,66.328,82.107,63.343,82.107,60.357z"/>
</g>
</svg>
