<?xml version="1.0" encoding="utf-8"?>
<!-- Generator: Adobe Illustrator 16.0.0, SVG Export Plug-In . SVG Version: 6.00 Build 0)  -->
<!DOCTYPE svg PUBLIC "-//W3C//DTD SVG 1.1//EN" "http://www.w3.org/Graphics/SVG/1.1/DTD/svg11.dtd">
<svg version="1.1" id="Layer_1" xmlns="http://www.w3.org/2000/svg" xmlns:xlink="http://www.w3.org/1999/xlink" x="0px" y="0px"
	 width="155.47px" height="108.557px" viewBox="0 0 155.47 108.557" style="enable-background:new 0 0 155.47 108.557;"
	 xml:space="preserve">
<path d="M139.923,0H15.547C6.996,0,0,6.996,0,15.547v77.735c0,8.551,6.996,15.548,15.547,15.548h124.376
	c8.552,0,15.547-6.997,15.547-15.548V15.547C155.47,6.996,148.475,0,139.923,0z M139.923,93.282H15.547V46.641h124.376V93.282z
	 M139.923,23.32H15.547v-7.773h124.376V23.32z M31.094,62.965v4.664h4.664v-4.664H31.094z M59.079,72.293v4.664h9.328v-4.664h4.664
	v-4.664h4.664v-4.664h-9.328v4.664h-4.664v4.664H59.079z M77.735,76.958v-4.664h-4.664v4.664H77.735z M54.415,76.958v-4.664h-9.328
	v4.664H54.415z M59.079,67.629h4.664v-4.664h-9.328v9.328h4.664V67.629z M40.422,72.293h4.665v-4.664h4.664v-4.664h-9.329v4.664
	h-4.664v4.664h-4.664v4.664h9.328V72.293z"/>
</svg>
