<?xml version="1.0" encoding="utf-8"?>
<!-- Generator: Adobe Illustrator 16.0.0, SVG Export Plug-In . SVG Version: 6.00 Build 0)  -->
<!DOCTYPE svg PUBLIC "-//W3C//DTD SVG 1.1//EN" "http://www.w3.org/Graphics/SVG/1.1/DTD/svg11.dtd">
<svg version="1.1" id="Layer_1" xmlns="http://www.w3.org/2000/svg" xmlns:xlink="http://www.w3.org/1999/xlink" x="0px" y="0px"
	 width="131.758px" height="163.807px" viewBox="0 0 131.758 163.807" style="enable-background:new 0 0 131.758 163.807;"
	 xml:space="preserve">
<path d="M129.66,141.077c-2.221-6.659-4.317-11.84-7.4-15.172c-3.083-3.33-8.387-12.087-12.458-15.047
	c-4.07-2.961-1.727-5.551-1.109-8.387c0.616-2.838,3.206-10.484,7.4-12.088s9.374-5.553,6.167-8.264
	c-3.207-2.714-4.935-9.251-4.935-9.251s0.987,0.617,0.74-6.785c-0.246-7.4-0.616-8.88-2.467-11.593
	c-1.85-2.714,0.74-4.688-4.315-9.375c-5.058-4.687,4.563-4.07-12.46-16.036c-17.021-11.964-17.884-5.304-16.774-8.51
	c1.111-3.207,1.111-11.717-2.712-15.788c-3.825-4.07-10.36-6.907-17.639-2.714c-7.278,4.193-5.304,6.044-7.216,12.212
	c-1.911,6.167,0,10.607,0,10.607s-3.761,2.467-5.488,3.7c-1.727,1.233-5.181,2.96-6.414,5.058c-1.234,2.096-4.07,7.647-3.824,8.88
	c0.246,1.233-0.986,4.687-2.344,6.291c-1.354,1.604-4.811,10.237-5.92,11.347c-1.109,1.11-7.895-2.22-7.895-2.22L9.401,26.737
	c0,0-3.578-7.031-3.085-8.757c0.493-1.727-0.863-6.291-4.811-3.084c-3.946,3.208,1.11,4.934,1.11,4.934s11.965,29.355,13.445,31.823
	c1.479,2.467,4.193,10.237,3.947,13.198c-0.248,2.96-2.345,13.938-8.882,23.189C4.59,97.29,9.771,98.524,9.771,98.524
	s2.343,1.355,7.894,3.576s4.564,1.604,9.497-0.246c4.934-1.851,6.415-4.071,6.415-4.071l1.109,1.604c0,0-1.48,6.291-0.74,16.528
	c0.74,10.238-0.616,10.978-5.798,14.186c-5.18,3.205-4.562,7.893-3.822,9.249c0.739,1.357,0,0,2.591,7.771
	c2.59,7.771,7.894,6.414,7.894,6.414s3.946-0.863,13.69-1.232c9.743-0.371,5.675-9.992,8.141-3.208
	c2.467,6.786,5.552,6.908,7.278,7.154c1.729,0.247,6.289,0,12.457-0.246c6.168-0.247,5.673-0.616,5.059-6.29
	c-0.617-5.675-2.346-4.195-8.636-3.455c-6.289,0.74-9.866-1.85-9.62-2.961c0.247-1.108,4.811-14.43,4.686-18.131
	c-0.122-3.7,3.513-7.029,3.513-7.029s6.603,13.074,18.937,24.422c12.335,11.348,3.947,6.167,11.349,15.788
	c7.4,9.621,3.083,1.849,7.77,3.823c4.688,1.975,7.771,0.369,9.499,1.11c1.727,0.739,4.686,1.11,7.029-1.728
	c2.345-2.836,0.123-5.304,0.123-5.304l5.674-2.837C131.757,153.411,131.88,147.737,129.66,141.077z M56.147,76.074
	c-0.494,1.234-2.414,1.111-3.797,1.358c-1.384,0.246-8.908,7.398-9.4,8.263s3.33-12.95,3.33-12.95c5.057,0,9.25-10.114,9.25-10.114
	s0.986,5.674,2.467,7.894C59.479,72.745,56.641,74.841,56.147,76.074z"/>
</svg>
