<?xml version="1.0" encoding="utf-8"?>
<!-- Generator: Adobe Illustrator 16.0.0, SVG Export Plug-In . SVG Version: 6.00 Build 0)  -->
<!DOCTYPE svg PUBLIC "-//W3C//DTD SVG 1.1//EN" "http://www.w3.org/Graphics/SVG/1.1/DTD/svg11.dtd">
<svg version="1.1" id="Layer_1" xmlns="http://www.w3.org/2000/svg" xmlns:xlink="http://www.w3.org/1999/xlink" x="0px" y="0px"
	 width="191.823px" height="100.013px" viewBox="0 0 191.823 100.013" style="enable-background:new 0 0 191.823 100.013;"
	 xml:space="preserve">
<g>
	<polygon points="29.236,33.35 29.236,0.567 3.819,0.567 3.819,89.583 29.236,89.583 29.236,56.797 63.023,56.797 63.023,89.583 
		88.441,89.583 88.441,63.301 62.599,33.35 	"/>
	<path d="M122.584,59.536V28.814c0-0.997,0.379-1.848,1.191-2.678c0.919-0.939,1.859-1.523,2.932-1.804
		c0.207-0.062,0.413-0.11,0.614-0.14c0.279-0.042,0.562-0.1,0.847-0.176h62.604V0.431l-62.866,0.136
		c-8.33,0-15.602,2.749-21.604,8.171c-6.062,5.469-9.134,12.194-9.134,19.986v2.274l24.668,28.187
		C122.082,59.303,122.33,59.42,122.584,59.536z"/>
	<path d="M185.514,74.069c0,0-5.194-2.507-28.75-2.273c-42.194,0.42-45.659-11.44-52.96-18.264
		C93.767,41.599,68.643,11.527,59.015,0H43.804l56.521,65.51c21.605,23.545,26.112,23.293,26.112,23.293s25.708,7.343,50.132,10.662
		c10.422,2.032,15.059-1.561,15.248-11.299C192.031,77.359,185.514,74.069,185.514,74.069z M148.753,93.07
		c-2.746-0.579-5.308-1.146-7.628-1.675l0.263-16.48l-3.652,15.693c-2.552-0.603-4.659-1.123-6.218-1.516l3.995-17.176
		c3.85,0.564,8.33,0.957,13.562,1.131L148.753,93.07z M167.782,96.618c-5.383-0.857-10.66-1.84-15.517-2.823l-1.96-20.703
		c1.616,0.042,3.305,0.065,5.064,0.065c0.676,0,1.364-0.004,2.062-0.011c0.18-0.001,0.345-0.001,0.521-0.002l1.96,20.716
		l3.176-20.713c3.173,0.033,5.907,0.117,8.257,0.238L167.782,96.618z M181.055,98.32c-1.418,0-2.995-0.155-4.756-0.476
		c-1.106-0.141-2.216-0.292-3.329-0.449l-1.275-23.991c4.19,0.223,7.134,0.553,9.152,0.868l1.274,24.018
		C181.777,98.309,181.421,98.32,181.055,98.32z"/>
</g>
</svg>
